<svg xmlns="http://www.w3.org/2000/svg" width="185" height="22" fill="none"><g fill-rule="evenodd" clip-path="url(#A)"><path fill="#231f20" d="M177.023 3.875c-2.811.002-5.62-.005-8.43-.011-.161 0-.322-.011-.48 0a6.505 6.505 0 0 1-3.295-.594c-.432-.202-.966-.204-1.457-.249-.419-.039-.843-.007-1.26-.007-.019-.275.116-.277.269-.284l2.534-.155 3.28-.59c2.408-.42 4.828-.6 7.26-.248.88.127 1.743.365 2.677.567l-.773 1.446c-.045.078-.213.125-.325.125zm-13.139.479 10.47-.249 2.943-.004-.891 2.192-1.731-.575c-1.266-.318-2.548-.426-3.825-.04a1.934 1.934 0 0 0-.586.271c-.232.17-.471.199-.74.19l-5.771-.169c-.579-.019-1.142-.125-1.671-.381a2.62 2.62 0 0 0-1.259-.26l-1.725.006c-.047-.198.017-.28.217-.28l1.018-.034c.895.045 1.734-.155 2.564-.477a2.95 2.95 0 0 1 .987-.19zm-4.042 2.965c.755.02 1.489-.082 2.182-.381.851-.366 1.75-.34 2.643-.38l4.892-.201c.073-.004.146 0 .267 0-.271.71.03 1.18.55 1.52.37.242.79.412 1.197.591 1.049.46 1.978 1.07 2.673 2.084h-.333l-10.386-.136a3.863 3.863 0 0 1-1.562-.339 3.472 3.472 0 0 0-1.51-.315l-1.671.001c-.033-.246.054-.297.211-.299l1.527-.037c.363-.026.744-.05 1.076-.181 1.028-.406 2.09-.525 3.183-.55l5.77-.183c.084-.002.168 0 .254-.043l-.749-.045-5.828-.128c-.991-.015-1.949-.16-2.882-.5a2.995 2.995 0 0 0-.91-.162l-1.807-.007-.039-.15c.088-.049.172-.13.261-.136a9.63 9.63 0 0 1 .991-.023zm15.022 5.434-9.648-.153c-.426-.01-.876-.076-1.267-.237a5.839 5.839 0 0 0-2.564-.447l-.897.002c-.02-.237.101-.26.26-.27l2.059-.124c.509-.07.995-.288 1.501-.389a10.117 10.117 0 0 1 1.588-.202l8.174-.26a.43.43 0 0 1 .447.249c.325.559.562 1.147.667 1.833l-.32-.002zm-14.671 4.816 13.638-.271h.366v-.041l-3.954-.12c-.697-.02-1.4 0-2.091-.07-.45-.047-.901-.193-1.327-.358-.409-.157-.809-.291-1.256-.28l-1.739.004c-.071-.284.058-.305.216-.305l1.613-.02c.269-.012.563-.015.802-.122 1.36-.603 2.805-.609 4.245-.658l3.366-.132c.192-.008.385-.04.575-.077l-6.196-.123a4.546 4.546 0 0 1-1.811-.385 3.439 3.439 0 0 0-1.56-.318l-1.546.004a7.482 7.482 0 0 0-.028-.146c.092-.041.182-.112.275-.118a30.19 30.19 0 0 1 1.441-.065c.523-.008 1.031-.071 1.519-.271.643-.262 1.312-.377 2.011-.398l6.193-.24h.265c.172.728.133 1.445.058 2.17-.153 1.499-.787 2.803-1.583 4.044-.054.084-.215.142-.325.142a2275.21 2275.21 0 0 1-8.66-.093l-5.15-.06a5.09 5.09 0 0 1-1.926-.378l-.484-.183c-.036.062-.079.107-.09.157-.084.44-.357.507-.772.497l-10.922-.179c-.77-.011-1.521-.112-2.226-.454-.381-.185-.785-.245-1.209-.234l-1.62.004c-.026-.228.075-.273.241-.275l1.245-.03c.712.025 1.371-.177 2.042-.379a7.028 7.028 0 0 1 1.628-.305c4.014-.222 8.033-.212 12.053-.196.046 0 .093.006.174.012l-.324.803c.148-.043.251-.065.346-.105.802-.312 1.624-.435 2.487-.448zm-4.389-13.595-5.083-.235c-.383-.024-.768-.187-1.127-.344-.406-.18-.807-.286-1.254-.271-.574.019-1.147.004-1.719.004-.011-.256.095-.312.275-.316.613-.013 1.225-.015 1.837-.062.36-.028.738-.08 1.068-.217.763-.317 1.548-.439 2.366-.46l4.493-.167c.037-.002.072.005.156.01l-.797 1.942c-.027.06-.144.118-.215.116zm-8.632 1.103a4.418 4.418 0 0 0 2.035-.376 3.632 3.632 0 0 1 1.342-.295l5.286-.226c.017 0 .036.01.081.02-.026.077-.045.154-.077.226l-1.596 3.734c-.035.084-.172.18-.258.176l-4.438-.168c-.517-.034-1.041-.185-1.534-.36a4.915 4.915 0 0 0-1.684-.302h-1.453c-.036-.278.097-.286.248-.29.669-.016 1.34-.015 2.007-.067.312-.024.624-.134.923-.24.819-.296 1.667-.391 2.527-.433l4.038-.19.002-.045-2.254-.105-1.895-.073c-.667-.009-1.269-.239-1.882-.465a3.388 3.388 0 0 0-.982-.196c-.621-.03-1.243-.01-1.865-.01l-.04-.145c.094-.05.185-.14.281-.148.396-.02.794-.043 1.188-.022zm-3.477.835c-.071.176-.157.237-.352.237-3.98-.005-7.96 0-11.943-.013-.37-.002-.775-.045-1.1-.202-1.146-.553-2.342-.741-3.596-.663-.074.006-.151-.004-.226-.007-.018-.002-.035-.012-.054-.017l-.05-.1c.095-.042.188-.12.286-.124l1.754-.03a4.08 4.08 0 0 0 .804-.13c.346-.085.688-.195 1.026-.311.801-.275 1.633-.253 2.461-.27l10.524-.188c.17-.004.338 0 .509-.045l-3.859-.071-8.064-.142a3.637 3.637 0 0 1-1.255-.275c-.606-.248-1.208-.409-1.864-.377-.459.022-.923.004-1.39.004-.035-.206.019-.292.208-.294.414-.004.831-.041 1.244-.022a4.473 4.473 0 0 0 1.878-.322c.757-.302 1.54-.379 2.353-.39l12.025-.217c.099-.002.2 0 .34 0l-.796 1.91-.863 2.06zm-19.313-.007c-.077.192-.18.244-.376.244-3.954-.005-7.906.002-11.86-.013-.397-.002-.832-.046-1.183-.21a7.032 7.032 0 0 0-3.543-.653c-.075.006-.152-.002-.227-.006-.028-.001-.056-.009-.082-.015l-.054-.099c.094-.044.187-.125.28-.129.567-.018 1.133-.001 1.699-.03a5.32 5.32 0 0 0 .942-.155c.319-.076.635-.177.947-.284.793-.27 1.615-.254 2.433-.269l10.557-.188c.188-.004.377 0 .566-.045l-5.106-.086-6.792-.11c-.488-.008-.957-.086-1.398-.303a3.456 3.456 0 0 0-1.723-.365c-.488.023-.977.004-1.459.004-.055-.233.035-.293.215-.295.405-.004.812-.04 1.216-.023a4.572 4.572 0 0 0 1.906-.325c.738-.293 1.504-.373 2.297-.385l12.056-.216c.103-.002.204 0 .344 0l-.799 1.928-.856 2.028zm-20.84-2.037c-.97-.053-1.941-.086-2.908-.176-.366-.034-.73-.176-1.076-.318-.353-.145-.699-.261-1.09-.25-.648.017-1.298.004-1.96.004.012-.27.12-.314.286-.316.604-.013 1.21-.013 1.81-.062.36-.028.737-.082 1.07-.213a6.748 6.748 0 0 1 2.341-.463l4.524-.168c.045-.002.09.005.172.013l-.842 2.066-2.327-.117zm-6.193 1.104a4.139 4.139 0 0 0 1.628-.299c.682-.278 1.398-.362 2.128-.387l4.521-.18h.211l-.559 1.373c-.097.233-.149.547-.327.665-.164.11-.471.013-.714.002l-3.954-.19a5.022 5.022 0 0 1-1.392-.315c-.647-.24-1.291-.396-1.983-.36-.394.02-.79.003-1.201.003-.032-.246.086-.267.231-.27.47-.012.94-.046 1.411-.042zm.594 1.947c.806-.344 1.641-.388 2.49-.422l4.152-.181c.101-.004.2 0 .334 0l-.828 1.947c-.024.058-.125.118-.188.116-1.508-.054-3.018-.068-4.519-.202-.697-.062-1.373-.368-2.06-.559-.19-.052-.382-.11-.575-.118-.564-.022-1.13-.02-1.696-.031-.101-.002-.202-.013-.305-.02l-.03-.096c.1-.045.194-.123.295-.13.555-.029 1.114-.016 1.667-.066.428-.038.878-.073 1.263-.238zm-4.335-2.947a269.81 269.81 0 0 1-3.25-.136c-.669-.032-1.341-.034-2-.135-.408-.061-.788-.297-1.188-.43a3.207 3.207 0 0 0-.786-.183c-.628-.04-1.26-.044-1.89-.063l-.033-.103c.097-.045.19-.121.29-.127.49-.022.98-.04 1.47-.032.497.01.978-.056 1.435-.252.757-.327 1.553-.422 2.372-.443l4.438-.162c.054-.002.108 0 .2 0l-.807 1.96c-.028.062-.167.11-.25.106zm-10.64.174-4.552-.194c-.923-.026-1.82-.131-2.67-.523a1.449 1.449 0 0 0-.49-.127c-.602-.042-1.204-.064-1.805-.094l-.335-.017-.034-.086c.087-.046.169-.129.258-.136.385-.028.776-.07 1.159-.043.884.062 1.687-.237 2.51-.475a4.825 4.825 0 0 1 1.162-.2l6.25-.168c.047-.002.092.004.199.01l-1.333 1.956c-.05.075-.21.1-.32.097zm-7.445.508c.368-.102.753-.188 1.132-.201l6.083-.169c.11-.003.22 0 .362 0-.048.092-.078.157-.117.217l-1.114 1.675c-.062.087-.204.175-.306.171l-5.54-.28c-.328-.02-.659-.16-.967-.293a4.473 4.473 0 0 0-1.87-.365c-.48.01-.96.002-1.464.002l-.134.888c-.608 0-1.19.019-1.774-.004l-5.118-.218c-.654-.03-1.293-.13-1.88-.45-.475-.262-.989-.35-1.527-.34-.433.008-.869 0-1.302-.018-.157-.005-.22.053-.243.198-.038.232-.084.464-.131.72l-.568-.032-4.156-.198c-.314-.017-.643-.065-.93-.183-1.098-.45-2.238-.565-3.42-.512l-.026-.312c.842-.02 1.693.125 2.49-.195.92-.366 1.858-.512 2.845-.502 1.272.01 2.547-.049 3.82-.077.09-.002.182 0 .302 0l-.125.832c.364 0 .712-.015 1.057.003a7.134 7.134 0 0 0 2.64-.377c.404-.135.85-.18 1.277-.19l6.679-.158c.13-.003.261 0 .43 0l-.144.81h1.936c.637-.002 1.207-.273 1.803-.442zm-5.767-.583c-1.13-.033-2.26-.123-3.39-.13a5.787 5.787 0 0 1-2.33-.494 3.104 3.104 0 0 0-1.368-.282c-.508.015-1.016.004-1.549.004.008-.25.088-.33.267-.316.131.01.264-.006.396-.004 1.146.023 2.273-.063 3.368-.456.321-.114.684-.144 1.028-.155l5.88-.153c.073-.002.148 0 .27 0l-.34 1.992c-.767-.002-1.5.017-2.232-.006zM58.88 3.926l-4.148-.232c-.385-.03-.768-.18-1.132-.323-.455-.178-.907-.305-1.398-.296-.593.012-1.185.002-1.781.002.005-.26.086-.34.282-.332.357.013.718-.015 1.075.007a4.362 4.362 0 0 0 1.93-.297c.936-.376 1.923-.413 2.913-.435l3.562-.116c.047-.002.092 0 .178 0l-.356 2.078-1.125-.056zm-7.34 3.21c.866.026 1.624-.377 2.437-.56.228-.051.462-.09.695-.096l4.554-.103h.346l-.116.811c.678.006 1.345.07 1.964-.216.876-.406 1.788-.514 2.749-.501l7.019.011h.358l-.196.89c.604-.075 1.213-.034 1.725-.238 1.082-.431 2.19-.5 3.324-.52l5.007-.128c.063-.002.127 0 .23 0-.07.116-.118.203-.174.286-.273.407-.585.794-.811 1.227-.232.441-.535.554-1.017.518-1.392-.105-2.788-.142-4.18-.232-.817-.052-1.615-.185-2.4-.476-.52-.193-1.119-.185-1.7-.267-.07.295-.138.512-.166.732-.026.206-.114.258-.314.249l-3.478-.137-4.606-.21c-.42-.025-.849-.167-1.243-.328-.631-.254-1.269-.407-1.953-.357-.172.013-.252.049-.273.232-.024.213-.082.422-.121.609-.376 0-.733.015-1.086-.002l-3.898-.218c-.276-.02-.577-.064-.818-.19-.793-.41-1.643-.451-2.502-.478-.357-.01-.714-.031-1.071-.048l-.038-.112c.103-.041.206-.112.31-.118a19.91 19.91 0 0 1 1.443-.03zm1.411 1.824a5.62 5.62 0 0 1 1.57-.305c1.49-.069 2.98-.08 4.47-.112.054-.002.108.01.192.017l-.117.807c.196-.026.38-.017.54-.076 1.345-.512 2.75-.501 4.157-.522l7.103-.121c.075-.002.148.005.256.011l-.121.807c.239-.037.478-.026.672-.116 1.224-.56 2.525-.556 3.828-.583l4.47-.12h.216l-.796 1.187c-.19.28-.33.671-.598.802-.278.138-.68.034-1.028.02l-4.071-.175c-.546-.04-1.082-.22-1.617-.357-.38-.097-.75-.226-1.145-.35l-.163.905h-.297l-8.374-.24a5.384 5.384 0 0 1-2.235-.528c-.256-.123-.55-.163-.863-.25l-.321 1.676c.16-.041.274-.058.38-.1.608-.236 1.22-.408 1.89-.412 1.368-.004 2.736-.067 4.102-.105.1-.004.202 0 .351 0l-.385.632c1.895-.544 3.807-.312 5.72-.53l-.065.535c.02.008.041.021.05.015.682-.36 1.42-.398 2.172-.409l5.462-.112c.1-.002.202 0 .353 0l-.36.538c-.202.297-.447.572-.6.892-.262.549-.664.635-1.23.594-1.504-.11-3.016-.135-4.522-.232-.501-.032-.993-.187-1.508-.288.005-.009-.017.013-.023.038-.058.196-.056.476-.185.564s-.396.004-.601-.015l-3.601-.355c-.432-.054-.849-.24-1.265-.387-.191-.067-.298-.067-.412.13-.267.46-.56.905-.883 1.421.17-.017.26-.018.345-.035.139-.028.282-.049.411-.101 1.082-.434 2.215-.479 3.362-.488l9.312-.114c.08-.002.162 0 .3 0-.328.488-.674.908-.913 1.381-.303.6-.729.727-1.374.699l-8.882-.286c-.37-.013-.738-.12-1.1-.213-.492-.127-.976-.282-1.46-.432-.157-.048-.252.008-.317.146-.004.01-.012.015-.015.024-.219.568-.626.677-1.215.652l-8.798-.293c-.267-.01-.56-.056-.79-.183-.88-.486-1.831-.542-2.797-.544h-.79c-.03-.224.063-.278.236-.276.471.002.944-.023 1.415-.008a3.63 3.63 0 0 0 1.493-.254c.826-.334 1.682-.434 2.571-.435l8.492-.073c.125-.002.252-.011.375-.036-1.603-.26-3.274-.026-4.825-.775l-.138.78-.955-.065-4.2-.345a3.232 3.232 0 0 1-.924-.254 5.451 5.451 0 0 0-2.259-.42c-.312.005-.626-.038-.94-.06v-.109c.03-.07.121-.064.206-.065.47-.012.943-.04 1.414-.028a4.055 4.055 0 0 0 1.546-.275c.745-.279 1.513-.447 2.32-.437.679.007 1.357-.043 2.037-.055l1.813-.001v-.098l-2.878-.173c-1.157-.049-2.283-.184-3.36-.662-.835-.37-1.741-.192-2.614-.265l-.011.04-.017-.044h-.114v-.107a.197.197 0 0 0 .013-.039c.011-.043.144-.067.22-.07.369-.02.735-.036 1.103-.038a6.356 6.356 0 0 0 2.134-.357zm-4.597 9.143c1.284.096 2.52-.11 3.766-.424.78-.196 1.627-.157 2.444-.187l6.647-.213c.046-.002.091 0 .198 0l-.488.858c.097.01.166.019.236.022 1.156.053 2.296-.01 3.393-.437.153-.06.335-.069.503-.07l9.027-.122c.056 0 .112.003.202.009-.05.088-.086.16-.13.226l-1.06 1.54-1.546 2.226a.41.41 0 0 1-.293.15l-6.475-.263c-.323-.014-.669-.074-.96-.21-.92-.429-1.893-.472-2.874-.5-.243-.007-.486-.022-.73-.033l-.025-.1c.087-.035.173-.095.263-.098.415-.02.83-.047 1.245-.034.65.019 1.278-.08 1.881-.316.731-.284 1.49-.372 2.27-.38l6.225-.111a1.78 1.78 0 0 0 .385-.041l-4.24-.187-3.362-.185a2.646 2.646 0 0 1-1.016-.31c-.953-.518-1.983-.462-3.007-.464-.067 0-.136.07-.198.116a.2.2 0 0 0-.058.095c-.203.602-.615.727-1.231.695l-6.701-.246a2.971 2.971 0 0 1-1.064-.245c-.773-.344-1.566-.525-2.412-.493-.357.013-.716-.028-1.073-.045-.01-.026-.024-.054-.035-.08.1-.055.2-.148.293-.143zm1.454 2.168c.435-.037.87-.142 1.291-.27a7.644 7.644 0 0 1 2.026-.354l6.705-.194c.07-.002.142.007.254.013l-1.187 1.96c-.035.056-.162.08-.244.078l-5.009-.14c-1.12-.005-2.186-.19-3.225-.607-.263-.107-.568-.135-.856-.151-.61-.038-1.83-.062-1.83-.062v-.236s1.464.015 2.075-.037zm24.104-3.016-8.596-.291c-.39-.015-.787-.184-1.157-.335a4.725 4.725 0 0 0-1.878-.336c-.18.002-.317.039-.388.209-.232.56-.643.67-1.228.645l-7.663-.25c-.266-.01-.54-.1-.789-.2-1.03-.416-2.09-.62-3.201-.54-.159.01-.32-.006-.48-.012-.028-.002-.054-.011-.082-.019a3.61 3.61 0 0 0-.051-.088c.084-.048.164-.117.256-.138.108-.024.226-.011.338-.007 1.11.04 2.19-.056 3.248-.454.445-.168.959-.21 1.44-.219l8.658-.112c.113-.002.223 0 .382 0l-.484.839c.59.01 1.145.07 1.676-.133.985-.38 2.003-.476 3.05-.484l8.46-.112c.098-.002.199 0 .354 0-.394.576-.781 1.097-1.12 1.648-.182.3-.388.404-.745.389zm3.511 3.244c.527-.026 1.058-.013 1.583-.063.426-.042.864-.1 1.265-.242a8.094 8.094 0 0 1 2.437-.44l4.212-.184a.278.278 0 0 0 .168-.048l-2.313-.122c-.847-.048-1.697-.074-2.54-.17-.383-.043-.762-.205-1.12-.362a3.175 3.175 0 0 0-1.369-.292c-.555.013-1.112.004-1.67.004-.012-.245.07-.344.28-.323.075.007.151-.006.226-.004 1.168.037 2.293-.11 3.403-.529.562-.211 1.22-.2 1.837-.235l4.156-.234-2.386-.118-1.753-.076c-.671-.023-1.303-.202-1.912-.466a2.967 2.967 0 0 0-1.261-.256c-.555.012-1.11.004-1.667.004l-.032-.146c.099-.04.196-.114.295-.12l1.895-.07c.286-.019.589-.064.849-.176.73-.312 1.485-.456 2.275-.5l4.83-.318c.027-.002.053.003.111.009-.03.084-.05.16-.08.233l-1.631 4.067a58.462 58.462 0 0 1-.968 2.19c-.034.073-.169.144-.253.14a266.879 266.879 0 0 1-3.872-.189c-.506-.028-1.01-.09-1.517-.14a.502.502 0 0 1-.217-.061c-1.001-.606-2.123-.501-3.218-.55l-.299-.015-.028-.086c.098-.04.19-.108.284-.112zm12.095-.002c.566-.028 1.132-.018 1.696-.065.361-.03.735-.08 1.071-.208.86-.325 1.74-.463 2.654-.486 1.414-.035 2.827-.113 4.242-.173.093-.004.185 0 .321 0l-.56 1.354c-.103.243-.154.576-.339.694s-.508.018-.77.01l-3.931-.16c-.56-.018-1.077-.174-1.578-.402a3.326 3.326 0 0 0-1.508-.308c-.515.017-1.031.004-1.545.004l-.028-.146c.092-.037.181-.108.275-.114zm9.821-1.147-4.836-.189a2.385 2.385 0 0 1-.87-.211c-.744-.344-1.51-.514-2.33-.463-.365.022-.733.003-1.113.003-.022-.252.097-.267.243-.269.548-.013 1.097.002 1.64-.06.49-.054.991-.138 1.453-.308.667-.249 1.344-.348 2.044-.372a125.94 125.94 0 0 0 4.468-.23l-2.651-.12c-.8-.044-1.6-.09-2.396-.173-.254-.026-.506-.142-.746-.25-.491-.227-1.01-.296-1.541-.307-.537-.011-1.073-.002-1.61-.002l-.037-.144c.083-.05.163-.138.249-.144a8.166 8.166 0 0 1 1.046-.028c.877.055 1.688-.196 2.508-.46.449-.143.938-.194 1.413-.22l4.864-.213c.037-.002.073 0 .14 0-.024.084-.037.153-.063.217l-1.587 3.748c-.058.14-.125.202-.288.195zm1.649 1.12c.489-.023.981-.05 1.47-.048a3.542 3.542 0 0 0 1.484-.299c.665-.299 1.36-.41 2.089-.422l11.319-.196c.131-.002.263 0 .394 0v-.093c-.559 0-1.117.007-1.676-.002l-9.566-.137a4.885 4.885 0 0 1-1.755-.355c-.446-.175-.943-.258-1.424-.303-.551-.05-1.11-.01-1.665-.01a4.975 4.975 0 0 0-.041-.167c.094-.034.185-.092.281-.095.517-.03 1.039-.023 1.554-.073.456-.045.931-.08 1.351-.238.884-.329 1.793-.409 2.719-.444a114.81 114.81 0 0 0 3.876-.219c-.174-.019-.348-.047-.523-.054l-3.9-.2c-.45-.036-.905-.189-1.325-.363a3.624 3.624 0 0 0-1.454-.293l-1.635.002a7.489 7.489 0 0 0-.034-.144c.086-.047.17-.133.256-.137.453-.02.907-.035 1.359-.024.566.013 1.11-.073 1.624-.304.704-.32 1.452-.369 2.209-.39l4.638-.171c.028-.002.054.01.123.02l-.861 2.056h7.775c-.019.088-.022.15-.045.206l-1.582 3.812c-.075.181-.189.174-.333.172l-6.311-.133-6.536-.151c-.275-.008-.572-.05-.819-.165-.695-.321-1.418-.422-2.173-.405-.372.007-.746-.023-1.118-.036-.005-.037-.013-.075-.018-.114.091-.028.181-.078.273-.084zm19.305.001a31.26 31.26 0 0 1 1.499-.047c.499 0 .977-.08 1.429-.284.701-.316 1.434-.426 2.2-.437l11.29-.194c.131-.002.264 0 .395 0v-.098c-.694 0-1.387.01-2.08-.001l-9.62-.157a2.705 2.705 0 0 1-1.008-.219 4.889 4.889 0 0 0-2.029-.432h-1.409c-.011-.044-.02-.091-.032-.136.09-.04.178-.11.269-.116.527-.032 1.058-.024 1.583-.077.456-.044.931-.08 1.351-.24.875-.331 1.776-.402 2.691-.44a91.24 91.24 0 0 0 3.902-.237l-1.768-.1c-.895-.044-1.794-.044-2.683-.14-.486-.052-.968-.23-1.43-.409a3.361 3.361 0 0 0-1.151-.24l-1.805-.053-.036-.097c.085-.047.165-.129.251-.135.338-.02.68-.033 1.018-.016.837.044 1.619-.157 2.396-.447a3.728 3.728 0 0 1 1.099-.215l5.174-.204c.075-.002.148 0 .273 0l-.871 2.073h7.802c-.049.13-.08.235-.123.336l-1.52 3.653c-.065.161-.153.202-.315.199l-9.196-.199-3.594-.087a2.89 2.89 0 0 1-1.009-.204 4.37 4.37 0 0 0-1.84-.359c-.449.01-.899.002-1.348.002l-.022-.148c.091-.035.177-.091.267-.095zm-16.297-11.85c-.032.1-.05.176-.082.25l-1.588 3.81-.875 2.053c-.08.198-.183.258-.394.254l-13.756-.177-2.49-.024c-.615.005-1.2-.09-1.754-.363a3.027 3.027 0 0 0-1.478-.303c-.555.02-1.111.004-1.702.004l.095-.348c.389 0 .776-.015 1.16.004.827.04 1.6-.183 2.387-.394.53-.142 1.088-.253 1.635-.264l15.934-.252c.114-.002.227 0 .341-.024l-4.777-.075-11.406-.17c-.176-.002-.368-.019-.523-.092-1.14-.541-2.355-.633-3.587-.639h-.308c-.011-.032-.02-.063-.032-.095.088-.041.176-.114.266-.118.461-.024.925-.046 1.386-.039.625.011 1.215-.118 1.792-.338.634-.241 1.286-.327 1.966-.335l15.286-.207c-.207-.015-.413-.04-.62-.043l-14.124-.194c-.613-.008-1.201-.071-1.758-.339a3.77 3.77 0 0 0-1.837-.366c-.46.02-.921.004-1.383.004l-.037-.125c.093-.047.186-.13.282-.135l1.753-.065a2.33 2.33 0 0 0 .715-.13c1.024-.403 2.08-.537 3.18-.547l15.965-.177c.11-.002.222 0 .368 0zm-18.317-1.66c.811-.322 1.641-.464 2.51-.483 1.32-.03 2.639-.099 3.96-.15.226-.009.452-.001.715-.001l-.908 2.132c-.03.065-.18.118-.267.11a151.324 151.324 0 0 1-3.186-.26c-.675-.063-1.35-.14-2.016-.252-.322-.054-.636-.177-.937-.312a2.996 2.996 0 0 0-1.319-.254c-.517.013-1.035.004-1.553.004l-.04-.144c.09-.049.178-.138.272-.142.566-.024 1.132-.01 1.697-.05.36-.023.74-.066 1.072-.199zm-1.85-1.942c.49-.026.98-.052 1.47-.05a4.096 4.096 0 0 0 1.49-.268 6.28 6.28 0 0 1 2.067-.413l4.69-.18h.204l-.813 1.982c-.022.05-.134.093-.201.091l-4.943-.232c-.445-.031-.882-.252-1.31-.422-.39-.155-.78-.26-1.206-.245-.564.019-1.128.004-1.692.004a5.004 5.004 0 0 1-.038-.163c.094-.037.187-.099.282-.104zm31.508 3.36-4.972-.223c-.374-.022-.75-.185-1.101-.336a3.937 3.937 0 0 0-1.785-.334c-.429.022-.861.003-1.291.003l-.026-.12c.056-.035.108-.082.17-.1s.131-.011.196-.011c1.209 0 2.394-.098 3.551-.533.512-.193 1.11-.178 1.67-.21l4.381-.201c.065-.004.13 0 .231 0l-.814 1.977c-.025.05-.141.09-.21.088zm7.744.263h.234l-.866 2.075c-.091.216-.192.43-.284.646l-1.41 3.394c-.073.175-.161.233-.354.233-4.141-.005-8.284.002-12.425-.018-.336-.002-.713-.135-1.001-.316-.624-.395-1.273-.582-2.009-.533-.495.032-.996.006-1.489.006-.045-.236.054-.271.213-.275.538-.011 1.076-.015 1.612-.056.354-.026.72-.06 1.049-.18.988-.36 2.005-.478 3.051-.497l11.065-.24c.131-.004.263 0 .396-.032l-4.253-.077-7.839-.136a1.897 1.897 0 0 1-.789-.182c-.86-.433-1.764-.58-2.713-.54-.299.013-.598.002-.897.002l-.038-.142c.094-.047.185-.129.279-.134a12.02 12.02 0 0 1 1.102-.004c.653.034 1.28-.07 1.886-.297.76-.286 1.542-.38 2.354-.389l11.235-.21c-.338-.016-.675-.044-1.013-.05l-8.801-.136a30.67 30.67 0 0 1-1.809-.067 2.445 2.445 0 0 1-.847-.193c-.773-.357-1.586-.461-2.422-.463-.338-.002-.674 0-1.016 0-.008-.232.108-.268.269-.27.566-.003 1.132.004 1.699-.026.306-.016.635-.04.906-.166 1.089-.5 2.252-.49 3.408-.559 3.837-.237 7.677-.155 11.517-.168zm11.567-.263-4.944-.213a2.106 2.106 0 0 1-.731-.198c-.815-.363-1.654-.553-2.549-.486-.306.022-.617.004-.925.004a1.602 1.602 0 0 0-.024-.094c.056-.041.108-.099.172-.121.058-.023.131-.012.196-.012 1.209 0 2.392-.099 3.549-.532.512-.193 1.11-.178 1.67-.21l4.351-.201c.072-.004.145 0 .259 0l-.818 1.982c-.019.047-.135.083-.206.08zm5.107 6.61c-4.18-.006-8.36.001-12.539-.018-.308-.001-.654-.14-.919-.312-.62-.401-1.271-.585-2.007-.538-.497.032-.996.006-1.495.006l-.048-.139c.086-.044.168-.123.256-.127a24.456 24.456 0 0 1 1.526-.05 3.46 3.46 0 0 0 1.299-.234c.847-.327 1.727-.433 2.631-.448l9-.187 2.764-.099-5.745-.091-6.282-.116c-.303-.008-.632-.058-.901-.187a5.41 5.41 0 0 0-2.657-.537c-.318.015-.636.002-.953.002l-.036-.123.251-.157c.013-.008.037-.002.056-.002 1.265.073 2.498-.05 3.696-.504.334-.127.719-.152 1.084-.16l11.574-.2h.254v-.095c-.667 0-1.334.01-1.999-.001l-9.17-.157c-.592-.01-1.166-.08-1.7-.348-.639-.318-1.333-.306-2.018-.336-.355-.015-.712-.002-1.071-.002-.006-.232.108-.27.271-.27.585-.003 1.172.01 1.755-.03.342-.023.7-.081 1.009-.22 1.024-.46 2.111-.43 3.191-.499 3.855-.24 7.714-.158 11.573-.17.064 0 .125.006.226.013l-.856 2.056-.306.697-1.4 3.367c-.067.155-.142.217-.314.215zm10.14 2.18-4.264-.206a3.913 3.913 0 0 1-1.223-.299c-.646-.272-1.3-.42-2.003-.38-.394.022-.79.003-1.185.003l-.046-.121c.097-.047.192-.133.291-.135.565-.019 1.131-.008 1.697-.032.249-.011.514-.037.742-.129 1.074-.435 2.186-.594 3.339-.609 1.252-.015 2.506-.091 3.758-.14.108-.004.219 0 .37 0l-.613 1.516c-.235.571-.237.562-.863.532zm-1.845-6.841a1.336 1.336 0 0 1-.521-.116c-.985-.497-2.046-.54-3.113-.56-.157-.004-.314 0-.471 0l-.032-.12c.088-.036.176-.1.264-.101.517-.019 1.039.004 1.554-.038a5.34 5.34 0 0 0 1.239-.226c.729-.239 1.452-.435 2.23-.456 1.554-.04 3.109-.127 4.664-.192.065-.002.131 0 .241 0l-.796 1.925c-.028.065-.157.13-.236.127l-5.023-.243zm3.48 4.445c-.064.152-.131.219-.305.21l-4.916-.243c-.357-.023-.72-.154-1.05-.301a3.802 3.802 0 0 0-1.671-.353c-.49.01-.979.002-1.474.002-.017-.236.108-.26.263-.262l1.725-.036c.239-.01.495-.033.712-.127 1.284-.545 2.64-.562 3.999-.609a73.65 73.65 0 0 0 3.139-.168l-1.81-.103-2.798-.138a2.62 2.62 0 0 1-.843-.207 5.396 5.396 0 0 0-2.474-.47c-.334.017-.671.002-1.007.002a8.38 8.38 0 0 1-.022-.155c.084-.028.166-.078.252-.082.575-.022 1.151-.019 1.725-.06.314-.022.641-.07.928-.19.871-.36 1.774-.48 2.706-.51l4.212-.184c.112-.005.223 0 .37 0l-.295.727-1.366 3.257zm-11.937 5.651c.368-.003.736-.046 1.102-.03.837.04 1.619-.168 2.403-.427a4.582 4.582 0 0 1 1.295-.238l10.243-.207c.697-.013 1.394-.002 2.123-.002l-.412 1c.41-.04.77-.056 1.124-.114a2.38 2.38 0 0 0 .67-.213c.8-.402 1.647-.46 2.525-.468l12.451-.157h.269l.032.083c-.443.273-.878.562-1.333.816-1.407.785-2.935 1.165-4.527 1.318-2.015.194-4.031.177-6.047.002-1.286-.113-2.514-.483-3.755-.798-.441-.113-.908-.131-1.366-.165-.08-.005-.226.11-.244.19-.109.477-.393.563-.854.552l-11.205-.192a4.311 4.311 0 0 1-1.45-.309c-.574-.222-1.146-.357-1.757-.35l-1.478.003c-.06-.25.03-.292.191-.294z"/><path fill="#ed1c24" d="M50.557 4.849v.68l-.168 1.026c-.1.538-.108.534-.66.532l-4.387-.02h-.335l-.073-.447c-.224-1.087-.822-1.61-1.917-1.771-1.882-.275-3.485.273-4.836 1.584-1.631 1.581-2.734 3.467-3.089 5.726-.187 1.187-.015 2.349.568 3.433.658 1.226 1.665 1.869 3.05 1.906 1.132.03 2.242-.094 3.289-.56.104-.047.226-.152.254-.255l.78-2.924c.007-.027 0-.056 0-.116h-3.729l.041-.245.951-3.463c.06-.222.146-.295.382-.295l8.463.006c.075 0 .153.009.224-.002l.004.017h.284l.011.007-.473 1.781-.164.602a1814.18 1814.18 0 0 0-2.134 7.89c-.053.196-.135.265-.335.298l-7.678.978c-1.656.084-3.315.123-4.956-.25-2.295-.524-3.659-1.983-4.298-4.192-.49-1.695-.394-3.4-.041-5.102.78-3.767 2.782-6.684 6.07-8.693 1.69-1.033 3.539-1.622 5.503-1.848 1.627-.189 3.259-.164 4.885.006a7.36 7.36 0 0 1 3.227 1.126c.872.557 1.213 1.406 1.285 2.396l.01.19-.008-.001zM24.824 21.01c-.058.211-.139.282-.36.28l-5.093-.005h-.31l.502-1.789 4.958-17.341c.063-.222.146-.314.394-.312l4.838.007h.314c-.024.11-.037.19-.058.266L24.824 21.01zM19.412 6.704a.858.858 0 0 1-.265.38L7.516 17.012c-.079.066-.153.135-.292.254h10.557l-.6 2.187c-.14.508-.3 1.012-.415 1.528-.058.258-.174.312-.422.312l-13.276-.005H0c.306-1.114.626-2.17.88-3.24.131-.554.408-.946.835-1.313L13.96 6.217l.437-.387H4.868l.125-.467.918-3.267c.05-.187.132-.248.329-.248l14.209.005c.084 0 .166.01.282.015-.02.097-.032.178-.054.256l-1.265 4.58z"/><path fill="#231f20" d="M182.036 14.463c-.355 0-.717-.04-1.061-.129-1.177-.299-1.781-1.162-1.79-2.513-.012-1.553.913-2.545 2.464-2.618a5.796 5.796 0 0 1 1.208.052c1.242.208 1.924.938 2.089 2.179.192 1.456-.503 2.583-1.82 2.908a4.647 4.647 0 0 1-1.09.121zm2.132-2.717c-.011-.74-.414-1.265-1.143-1.46a3.574 3.574 0 0 0-1.846-.01c-.77.197-1.18.7-1.191 1.448-.013.884.34 1.405 1.142 1.625.314.086.647.109.977.161.329-.058.662-.084.974-.177.749-.223 1.101-.755 1.087-1.587zm.412-7.112c.233.082.327.181.312.437-.036.62.11.465-.483.675l-3.814 1.328-.291.114h4.563v.81h-5.606l-.003-1.025c-.01-.2.052-.297.25-.364l3.948-1.373.266-.105-4.45-1.603V2.244h5.592v.844h-4.551l.359.148 3.908 1.398zm-4.289 10.863c-.101.34-.232.655-.286.984-.153.925.334 1.69 1.258 1.88a4.377 4.377 0 0 0 1.51.04c1.04-.163 1.528-.901 1.377-1.968-.047-.335-.131-.662-.208-1.04l.673.008c.056.006.135.096.153.163.223.745.288 1.502.066 2.26-.206.7-.679 1.169-1.359 1.41a3.981 3.981 0 0 1-2.528.065c-.938-.284-1.529-.912-1.708-1.883a3.494 3.494 0 0 1 .301-2.237l.751.318zm4.115 4.974c.396 0 .598.198.594.581-.006.372-.2.559-.585.563-.398.002-.589-.187-.589-.581-.001-.374.195-.563.58-.563z"/></g><defs><clipPath id="A"><path fill="#fff" d="M0 0h185v22H0z"/></clipPath></defs></svg>